# xmcd
#
# Track frame offsets:
#	150
#	14182
#	27297
#	41890
#	53418
#	65470
#	79583
#	90961
#	105513
#	117543
#	131328
#	145510
#	160466
#	172804
#	183932
#	194471
#	209876
#	223569
#	239737
#	253600
#
# Disc length: 3553 seconds
#
# Revision: 1
# Processed by: cddbd v1.5.2PL0 Copyright (c) Steve Scherf et al.
# Submitted via: audiograbber 1.83.01
#
DISCID=1c0ddf14
DTITLE=Various Artist - Jukebox Favourites - Best Of Blues 4
DYEAR=1900
DGENRE=Blues
TTITLE0=Charley Patton - Screamin' And Hollerin' The Blues
TTITLE1=Bukka White - High Fever Blues
TTITLE2=Muddy Waters - Blow Wind Blow
TTITLE3=Howlin' Wolf - Sittin' On Top Of The World
TTITLE4=Freddie King - Hide Away
TTITLE5=Bo Diddley - Before You Accuse Me
TTITLE6=Amos Milburn - Blues At Sundown
TTITLE7=Blind Boy Fuler - Homesick Blues
TTITLE8=Big Joe Williams - Sugar Mama
TTITLE9=Eddie 'Cleanhead' Vinsom - Kidney Stew Blues
TTITLE10=Little Walter - Blues With A Feeling
TTITLE11=Sonny Boy Williamson - Susie Q
TTITLE12=Little Buddy Doyle - Lost Baby Blues
TTITLE13=Jimmy Reed - Little Rain
TTITLE14=B.B. King - That Ain't The Way To Do It
TTITLE15=Blind Willie Johnson - Dark Was The Night
TTITLE16=Bobby Bland - Farther Up The Road
TTITLE17=Big Bill Broonzy - I'm A Prowlin' Ground Hog
TTITLE18=Buddy Guy - Sit And Cry (The Blues)
TTITLE19=Walter Davis - Sweet Sixteen
EXTD=
EXTT0=
EXTT1=
EXTT2=
EXTT3=
EXTT4=
EXTT5=
EXTT6=
EXTT7=
EXTT8=
EXTT9=
EXTT10=
EXTT11=
EXTT12=
EXTT13=
EXTT14=
EXTT15=
EXTT16=
EXTT17=
EXTT18=
EXTT19=
PLAYORDER=
